<?xml version="1.0" encoding="utf-8"?>
<!-- Generator: Adobe Illustrator 16.0.0, SVG Export Plug-In . SVG Version: 6.00 Build 0)  -->
<!DOCTYPE svg PUBLIC "-//W3C//DTD SVG 1.1//EN" "http://www.w3.org/Graphics/SVG/1.1/DTD/svg11.dtd">
<svg version="1.1" id="Layer_1" xmlns="http://www.w3.org/2000/svg" xmlns:xlink="http://www.w3.org/1999/xlink" x="0px" y="0px"
	 width="6px" height="269.069px" viewBox="0 0 6 269.069" enable-background="new 0 0 6 269.069" xml:space="preserve">
<g>
	<polygon fill="#FF4400" points="6,11.039 0,5.52 6,0 	"/>
	<polygon fill="#FF4400" points="6,18.628 0,13.108 6,7.59 	"/>
	<polygon fill="#FF4400" points="6,26.217 0,20.697 6,15.179 	"/>
	<polygon fill="#FF4400" points="6,33.807 0,28.287 6,22.768 	"/>
	<polygon fill="#FF4400" points="6,41.396 0,35.876 6,30.356 	"/>
	<polygon fill="#FF4400" points="6,48.984 0,43.466 6,37.945 	"/>
	<polygon fill="#FF4400" points="6,56.573 0,51.055 6,45.535 	"/>
	<polygon fill="#FF4400" points="6,64.162 0,58.644 6,53.124 	"/>
	<polygon fill="#FF4400" points="6,71.752 0,66.232 6,60.714 	"/>
	<polygon fill="#FF4400" points="6,79.341 0,73.821 6,68.303 	"/>
	<polygon fill="#FF4400" points="6,86.931 0,81.411 6,75.892 	"/>
	<polygon fill="#FF4400" points="6,94.52 0,89 6,83.48 	"/>
	<polygon fill="#FF4400" points="6,102.108 0,96.59 6,91.069 	"/>
	<polygon fill="#FF4400" points="6,109.697 0,104.178 6,98.659 	"/>
	<polygon fill="#FF4400" points="6,117.286 0,111.768 6,106.248 	"/>
	<polygon fill="#FF4400" points="6,124.876 0,119.356 6,113.837 	"/>
	<polygon fill="#FF4400" points="6,132.465 0,126.946 6,121.426 	"/>
	<polygon fill="#FF4400" points="6,140.054 0,134.535 6,129.016 	"/>
	<polygon fill="#FF4400" points="6,147.643 0,142.124 6,136.605 	"/>
	<polygon fill="#FF4400" points="6,155.232 0,149.713 6,144.193 	"/>
	<polygon fill="#FF4400" points="6,162.821 0,157.302 6,151.783 	"/>
	<polygon fill="#FF4400" points="6,170.411 0,164.893 6,159.372 	"/>
	<polygon fill="#FF4400" points="6,177.999 0,172.48 6,166.961 	"/>
	<polygon fill="#FF4400" points="6,185.589 0,180.07 6,174.55 	"/>
	<polygon fill="#FF4400" points="6,193.178 0,187.658 6,182.14 	"/>
	<polygon fill="#FF4400" points="6,200.767 0,195.248 6,189.729 	"/>
	<polygon fill="#FF4400" points="6,208.355 0,202.837 6,197.317 	"/>
	<polygon fill="#FF4400" points="6,215.945 0,210.426 6,204.907 	"/>
	<polygon fill="#FF4400" points="6,223.535 0,218.015 6,212.496 	"/>
	<polygon fill="#FF4400" points="6,231.123 0,225.604 6,220.086 	"/>
	<polygon fill="#FF4400" points="6,238.713 0,233.194 6,227.674 	"/>
	<polygon fill="#FF4400" points="6,246.302 0,240.782 6,235.264 	"/>
	<polygon fill="#FF4400" points="6,253.892 0,248.372 6,242.853 	"/>
	<polygon fill="#FF4400" points="6,261.479 0,255.961 6,250.441 	"/>
	<polygon fill="#FF4400" points="6,269.069 0,263.551 6,258.03 	"/>
</g>
</svg>
