<svg id="Group_3115" data-name="Group 3115" xmlns="http://www.w3.org/2000/svg" width="21.377" height="11.244" viewBox="0 0 21.377 11.244">
  <path id="Path_3258" data-name="Path 3258" d="M464.044,313.5a12.979,12.979,0,0,0-21.039,0l-.169.246.169.245a12.978,12.978,0,0,0,21.039,0l.17-.245Zm-10.519,5a12.7,12.7,0,0,1-9.62-4.758,12.107,12.107,0,0,1,19.241,0A12.671,12.671,0,0,1,453.525,318.507Z" transform="translate(-442.836 -308.128)"/>
  <path id="Path_3259" data-name="Path 3259" d="M462.446,312.128a3.892,3.892,0,1,0,3.892,3.892A3.9,3.9,0,0,0,462.446,312.128Zm0,6.92a3.027,3.027,0,1,1,3.027-3.027A3.031,3.031,0,0,1,462.446,319.048Z" transform="translate(-451.756 -310.398)"/>
</svg>
