<?xml version="1.0" encoding="utf-8"?>
<!-- Generator: Adobe Illustrator 16.0.0, SVG Export Plug-In . SVG Version: 6.00 Build 0)  -->
<!DOCTYPE svg PUBLIC "-//W3C//DTD SVG 1.1//EN" "http://www.w3.org/Graphics/SVG/1.1/DTD/svg11.dtd">
<svg version="1.1" id="Layer_1" xmlns="http://www.w3.org/2000/svg" xmlns:xlink="http://www.w3.org/1999/xlink" x="0px" y="0px"
	 width="150px" height="44.354px" viewBox="263.55 77.933 150 44.354" enable-background="new 263.55 77.933 150 44.354"
	 xml:space="preserve">
<g>
	<g>
		<path fill="#B2B2B2" d="M408.214,78.374c1.549,0,2.767,0.432,3.615,1.285c0.842,0.845,1.283,2.1,1.277,3.629
			c-0.031,7.943-0.025,16.019-0.021,23.828c0.002,3.356,0.005,6.712,0.004,10.068c0,3.002-1.646,4.655-4.635,4.656
			c-23.297,0.002-46.595,0.003-69.893,0.003c-23.297,0-46.595-0.001-69.893-0.003c-1.504,0-2.667-0.399-3.459-1.188
			c-0.79-0.786-1.191-1.942-1.191-3.436c-0.001-3.433,0.001-6.865,0.004-10.297c0.005-7.88,0.011-16.028-0.028-24.042
			c-0.006-1.307,0.418-2.433,1.228-3.247c0.814-0.818,1.943-1.256,3.263-1.256h0.018c13.529,0,26.915,0.051,37.064,0.051
			c5.506,0,11.012-0.024,16.519-0.025c5.474-0.002,10.948-0.025,16.422-0.025h0.079c5.672,0,11.344,0.027,17.017,0.029
			c5.672,0.003,11.344,0.018,17.016,0.018c14.391,0,25.357-0.047,35.563-0.047h0.031 M408.214,77.93c-0.012,0-0.023,0-0.035,0
			c-11.853,0.048-23.707,0.035-35.561,0.035c-11.344,0-22.688-0.035-34.032-0.035c-0.027,0-0.052,0-0.079,0
			c-10.979,0-21.961,0.026-32.94,0.026c-12.355,0-24.708-0.026-37.063-0.026c-0.006,0-0.013,0-0.02,0
			c-2.925,0-4.949,2.023-4.935,4.943c0.057,11.446,0.021,22.894,0.025,34.339c0.001,3.244,1.826,5.068,5.094,5.068
			c23.298,0.002,46.596,0.003,69.893,0.003c23.298,0,46.596,0,69.893-0.002c3.238-0.001,5.077-1.86,5.078-5.1
			c0.002-11.298-0.026-22.596,0.018-33.894C413.563,80.011,411.657,77.93,408.214,77.93L408.214,77.93z"/>
	</g>
	<g>
		<path fill="#919191" d="M274.857,101.64c0.051-2.81,0.609-5.155,2.417-6.993c2.075-2.107,4.613-2.863,7.367-1.646
			c1.789,0.791,3.326,0.68,5.054-0.058c2.869-1.225,5.997-0.426,7.969,1.797c0.429,0.483,0.39,0.702-0.107,1.093
			c-4.064,3.204-2.917,9.11,0.76,10.891c0.48,0.233,0.504,0.508,0.321,0.971c-0.922,2.324-2.127,4.469-4.029,6.13
			c-1.212,1.06-2.643,1.28-4.124,0.591c-1.998-0.932-3.972-0.958-5.97-0.025c-1.9,0.888-3.505,0.436-4.858-1.108
			C276.661,109.861,275.025,105.898,274.857,101.64z"/>
		<path fill="#919191" d="M384.218,98.755c-1.688,1.668-3.287,1.824-4.531,0.729c-1.598-1.406-1.897-4.355-0.617-6.06
			c1.16-1.544,2.9-1.804,4.808-0.609c0-1.165,0.032-2.249-0.011-3.33c-0.027-0.652,0.24-0.812,0.844-0.809
			c0.612,0.002,0.943,0.098,0.936,0.836c-0.034,3.136-0.005,6.272-0.025,9.407c-0.003,0.402,0.309,1.033-0.525,1.069
			C384.446,100.019,383.823,100.039,384.218,98.755z M383.877,96.105c0.003-1.722-0.623-2.671-1.771-2.685
			c-1.174-0.014-2.037,1.199-2.006,2.821c0.027,1.463,0.824,2.45,1.977,2.453C383.363,98.698,383.874,97.96,383.877,96.105z"/>
		<path fill="#919191" d="M330.709,99.315c0,0.986-0.034,1.943,0.012,2.896c0.032,0.663-0.173,0.908-0.867,0.902
			c-0.671-0.006-0.896-0.212-0.89-0.891c0.023-2.951-0.012-5.903,0.005-8.854c0.002-0.438-0.299-1.065,0.593-1.148
			c0.777-0.072,1.005,0.314,0.993,1.018c2.063-1.488,3.568-1.523,4.807-0.178c1.46,1.585,1.46,4.303,0,5.993
			C334.155,100.452,332.539,100.555,330.709,99.315z M330.85,96.137c0.048,0.512,0.027,1.043,0.161,1.531
			c0.214,0.785,0.917,1.09,1.62,1.126c0.718,0.038,1.327-0.288,1.663-1.042c0.647-1.455,0.339-3.446-0.711-4.024
			c-0.591-0.326-1.22-0.262-1.794,0.071C330.873,94.33,330.844,95.223,330.85,96.137z"/>
		<path fill="#919191" d="M321.807,99.452c0,0.997-0.032,1.947,0.011,2.892c0.032,0.704-0.353,0.749-0.898,0.762
			c-0.589,0.013-0.862-0.129-0.856-0.794c0.025-3.025,0.001-6.05,0.005-9.075c0-0.444-0.183-0.972,0.618-1.016
			c0.745-0.041,1.013,0.258,0.929,1.095c0.929-0.75,1.783-1.346,2.94-1.165c0.81,0.127,1.447,0.497,1.977,1.105
			c1.214,1.395,1.216,4.102-0.007,5.669C325.436,100.319,323.828,100.521,321.807,99.452z M321.848,96.306
			c-0.055,0.942,0.041,1.954,1.212,2.335c1.225,0.399,2.229-0.286,2.526-1.612c0.363-1.622-0.262-3.203-1.366-3.448
			c-0.106-0.023-0.219-0.023-0.329-0.029C322.582,93.483,321.848,94.436,321.848,96.306z"/>
		<path fill="#919191" d="M317.805,99.973c-0.697,0.156-0.956-0.213-1.163-0.833c-0.768-2.299-0.791-2.256-3.22-2.289
			c-0.769-0.011-1.161,0.207-1.3,0.966c-0.093,0.504-0.323,0.982-0.423,1.485c-0.19,0.956-0.938,0.768-1.484,0.636
			c-0.684-0.165-0.245-0.711-0.131-1.074c0.938-2.986,1.922-5.959,2.832-8.954c0.223-0.733,0.678-0.74,1.258-0.741
			c0.614-0.001,1.107-0.008,1.349,0.777c0.945,3.062,1.949,6.105,2.971,9.143C318.743,99.833,318.616,100.131,317.805,99.973z
			 M314.17,90.935c-0.292,1.002-0.512,1.816-0.768,2.618c-0.704,2.205-0.711,2.178,1.569,2.024c0.577-0.04,0.574-0.249,0.439-0.673
			C315.009,93.646,314.621,92.384,314.17,90.935z"/>
		<path fill="#919191" d="M345.257,89.118c0.553,0.01,1.096,0.025,1.638,0.201c0.534,0.173,0.69,0.401,0.516,0.971
			c-0.181,0.592-0.432,0.61-0.964,0.444c-0.655-0.204-1.344-0.432-2.054-0.138c-0.534,0.221-1.004,0.49-1.063,1.142
			c-0.059,0.658,0.217,1.119,0.793,1.452c0.954,0.552,2.021,0.882,2.881,1.625c1.438,1.244,1.346,3.48-0.227,4.564
			c-1.559,1.074-3.187,0.89-4.859,0.332c-0.645-0.216-0.436-0.625-0.344-1.053c0.114-0.543,0.446-0.511,0.829-0.342
			c0.728,0.322,1.493,0.437,2.271,0.338c0.739-0.093,1.357-0.438,1.525-1.228c0.161-0.763-0.112-1.385-0.826-1.76
			c-0.487-0.256-0.987-0.491-1.482-0.731c-1.825-0.886-2.63-2.156-2.273-3.591C341.974,89.907,343.292,89.101,345.257,89.118z"/>
		<path fill="#919191" d="M396.942,93.211c0.212-0.091,0.295-0.102,0.338-0.149c0.853-0.933,1.878-1.279,3.09-0.858
			c1.302,0.452,1.747,1.561,1.829,2.777c0.098,1.431,0,2.875,0.035,4.312c0.018,0.754-0.451,0.686-0.945,0.705
			c-0.531,0.021-0.823-0.106-0.807-0.726c0.035-1.252,0.023-2.507,0.006-3.761c-0.017-1.181-0.516-1.868-1.373-1.953
			c-0.961-0.095-1.539,0.454-1.825,1.652c-0.157,0.661-0.095,1.32-0.097,1.98c-0.012,2.771-0.006,2.771-0.853,2.782
			c-0.903,0.011-0.903,0.011-0.903-2.834c0-1.254-0.026-2.508,0.014-3.761c0.014-0.43-0.35-1.1,0.555-1.162
			C396.702,92.167,397.181,92.305,396.942,93.211z"/>
		<path fill="#919191" d="M361.964,96.096c-0.01,2.432-1.574,4.111-3.818,4.097c-2.131-0.014-3.729-1.717-3.732-3.975
			c-0.002-2.358,1.617-4.169,3.844-4.121C360.906,92.155,362.12,93.969,361.964,96.096z M360.169,96.005
			c0.094-0.446-0.089-0.898-0.251-1.347c-0.271-0.75-0.76-1.247-1.606-1.308c-0.911-0.065-1.435,0.44-1.805,1.188
			c-0.322,0.65-0.377,1.345-0.309,2.049c0.129,1.348,0.944,2.278,1.973,2.283c1.039,0.005,1.84-0.899,1.995-2.262
			C360.187,96.427,360.169,96.241,360.169,96.005z"/>
		<path fill="#919191" d="M393.416,97.233c0,0.627,0.012,1.254-0.005,1.881c-0.008,0.273,0.301,0.648-0.053,0.799
			c-0.396,0.169-1.076,0.265-1.258-0.025c-0.49-0.785-0.82-0.151-1.18,0.021c-1.214,0.58-2.43,0.357-3.189-0.622
			c-0.699-0.9-0.693-2.2,0.077-3.065c0.645-0.724,1.563-0.895,2.459-1.136c0.478-0.129,1.396,0.188,1.311-0.726
			c-0.079-0.843-0.845-1.006-1.599-1.023c-0.455-0.01-0.881,0.108-1.287,0.278c-0.363,0.152-0.644,0.181-0.783-0.256
			c-0.113-0.354-0.039-0.623,0.316-0.834c2.443-1.458,5.125,0,5.174,2.827c0.012,0.627,0.002,1.254,0.002,1.881
			C393.406,97.233,393.411,97.233,393.416,97.233z M391.669,97.023c0.086-0.565-0.116-0.87-0.837-0.824
			c-1.174,0.077-1.885,0.633-1.878,1.558c0.006,0.809,0.498,1.098,1.199,1.113C391.062,98.891,391.675,98.149,391.669,97.023z"/>
		<path fill="#919191" d="M372.663,96.464c-0.627,0.001-1.254,0.016-1.879-0.002c-0.672-0.02-0.76,0.345-0.549,0.847
			c0.338,0.804,0.929,1.321,1.836,1.372c0.66,0.037,1.334,0.083,1.975-0.11c0.434-0.131,0.633,0.015,0.705,0.415
			c0.061,0.338,0.088,0.649-0.369,0.778c-2.011,0.567-4.115,0.557-5.34-1.328c-1.156-1.782-0.791-4.214,0.812-5.613
			c1.048-0.915,2.731-1.051,3.923-0.317c1.052,0.647,1.715,2.267,1.479,3.476c-0.09,0.462-0.369,0.481-0.714,0.481
			C373.915,96.463,373.289,96.463,372.663,96.464z M371.867,95.32c0.367,0,0.735-0.014,1.101,0.003
			c0.74,0.033,0.782-0.337,0.563-0.905c-0.374-0.974-1.292-1.427-2.202-1.055c-0.727,0.297-1.172,0.963-1.094,1.626
			c0.074,0.643,0.853,0.209,1.303,0.328C371.641,95.344,371.757,95.321,371.867,95.32z"/>
		<path fill="#919191" d="M286.855,91.115c0.114-2.567,2.659-5.331,5.163-5.715c0.534-0.082,0.795,0.008,0.813,0.652
			c0.072,2.535-2.244,5.499-4.722,5.926C287.395,92.102,286.614,92.2,286.855,91.115z"/>
		<path fill="#919191" d="M349.982,96.006c0-0.552-0.007-1.104,0.002-1.657c0.008-0.431,0.006-0.833-0.602-0.806
			c-0.476,0.02-0.502-0.31-0.509-0.668c-0.007-0.382,0.077-0.664,0.536-0.636c0.531,0.032,0.619-0.305,0.568-0.712
			c-0.127-0.989,0.697-0.944,1.23-1.017c0.75-0.104,0.507,0.586,0.488,0.948c-0.039,0.788,0.424,0.811,0.985,0.781
			c0.462-0.025,0.876-0.033,0.872,0.651c-0.002,0.676-0.41,0.703-0.873,0.651c-0.713-0.078-0.996,0.18-0.957,0.921
			c0.053,0.991,0.016,1.987,0.014,2.981c-0.002,0.732,0.273,1.218,1.086,1.213c0.365-0.002,0.661,0.042,0.662,0.515
			c0.001,0.4-0.091,0.685-0.512,0.867c-1.246,0.541-2.813-0.444-2.96-1.937c-0.068-0.693-0.012-1.397-0.012-2.097
			C349.995,96.006,349.989,96.006,349.982,96.006z"/>
		<path fill="#919191" d="M324.969,108.507c0-0.787,0.015-1.449-0.005-2.11c-0.014-0.476,0.186-0.651,0.656-0.651
			c0.48,0,0.646,0.198,0.645,0.663c-0.006,2.215-0.005,4.43,0.021,6.644c0.006,0.551-0.401,0.914-0.692,0.628
			c-0.646-0.636-1.063-0.071-1.557,0.085c-1.57,0.497-3.086-0.952-2.966-2.85C321.215,108.626,322.712,107.66,324.969,108.507z
			 M324.99,110.905c0.062-0.78-0.031-1.638-1.148-1.798c-0.831-0.118-1.545,0.82-1.548,1.919c-0.003,0.968,0.643,1.799,1.413,1.817
			C324.54,112.863,324.975,112.25,324.99,110.905z"/>
		<path fill="#919191" d="M365.049,93.354c0.716-0.517,1.085-1.121,1.796-1.224c0.364-0.052,0.813-0.234,0.824,0.342
			c0.009,0.443,0.352,1.063-0.393,1.294c-1.559,0.487-1.928,0.953-1.984,2.643c-0.031,0.955-0.031,1.913,0.002,2.868
			c0.021,0.603-0.259,0.744-0.799,0.743c-0.531-0.001-0.795-0.128-0.808-0.735c-0.043-2.091,0.171-4.188-0.144-6.273
			c-0.067-0.446,0.035-0.751,0.621-0.792C364.912,92.168,365.169,92.475,365.049,93.354z"/>
		<path fill="#919191" d="M314.538,110.916c0-0.664,0.026-1.329-0.007-1.991c-0.037-0.721,0.483-0.959,0.873-0.629
			c0.513,0.436,0.793,0.206,1.235,0.022c1.15-0.478,2.226,0.068,2.591,1.293c0.356,1.193,0.079,2.42,0.128,3.631
			c0.02,0.48-0.348,0.471-0.695,0.483c-0.431,0.016-0.587-0.188-0.582-0.6c0.011-0.812,0.018-1.624-0.005-2.435
			c-0.02-0.741-0.138-1.448-1.124-1.433c-0.95,0.014-1.13,0.653-1.125,1.434c0.005,0.774-0.018,1.55,0.005,2.324
			c0.015,0.518-0.178,0.726-0.71,0.717c-0.529-0.008-0.593-0.299-0.586-0.714C314.546,112.318,314.538,111.617,314.538,110.916z"/>
		<path fill="#919191" d="M344.402,111.699c0,0.479-0.012,0.959,0.003,1.438c0.015,0.519-0.292,0.592-0.714,0.592
			c-0.434,0.001-0.582-0.2-0.577-0.607c0.011-0.849,0.021-1.697-0.007-2.545c-0.023-0.716-0.21-1.343-1.121-1.319
			c-0.865,0.022-1.121,0.57-1.123,1.329c-0.001,0.812-0.021,1.623,0.002,2.434c0.015,0.521-0.185,0.722-0.713,0.714
			c-0.531-0.009-0.586-0.305-0.584-0.718c0.008-1.364,0.025-2.729-0.006-4.094c-0.018-0.722,0.469-0.944,0.881-0.628
			c0.506,0.389,0.787,0.223,1.244,0.024c1.092-0.472,2.146,0.061,2.566,1.189C344.521,110.228,344.385,110.968,344.402,111.699z"/>
		<path fill="#919191" d="M312.322,110.005c0,0.958-0.007,1.915,0.003,2.873c0.004,0.471,0.015,0.875-0.665,0.858
			c-0.594-0.015-0.632-0.346-0.631-0.793c0.008-1.989,0.006-3.978,0.001-5.967c-0.001-0.438,0.022-0.79,0.621-0.808
			c0.67-0.021,0.679,0.375,0.674,0.854C312.314,108.017,312.322,109.011,312.322,110.005z"/>
		<path fill="#919191" d="M331.8,110.944c0-0.701,0.008-1.401-0.001-2.102c-0.008-0.593,0.544-0.827,0.75-0.521
			c0.47,0.698,0.753,0.301,1.17,0.048c0.301-0.182,0.73-0.402,0.926,0.09c0.148,0.371,0.138,0.782-0.461,0.899
			c-0.932,0.182-1.165,0.937-1.229,1.745c-0.046,0.586-0.003,1.179-0.015,1.769c-0.008,0.386,0.11,0.85-0.537,0.868
			c-0.724,0.021-0.593-0.494-0.601-0.916C331.79,112.198,331.799,111.571,331.8,110.944z"/>
		<path fill="#919191" d="M337.535,110.979c0,0.695-0.012,1.392,0.004,2.086c0.01,0.454-0.158,0.654-0.637,0.668
			c-0.564,0.016-0.666-0.268-0.66-0.745c0.017-1.354,0.019-2.709,0-4.063c-0.007-0.498,0.145-0.738,0.686-0.726
			c0.5,0.012,0.619,0.261,0.611,0.693C337.526,109.588,337.535,110.284,337.535,110.979z"/>
		<path fill="#919191" d="M329.618,110.982c0,0.698-0.005,1.396,0.002,2.094c0.004,0.372-0.068,0.634-0.531,0.65
			c-0.508,0.018-0.62-0.239-0.616-0.677c0.011-1.396,0.007-2.791,0.003-4.187c-0.001-0.369,0.068-0.64,0.53-0.656
			c0.507-0.018,0.624,0.249,0.616,0.683C329.609,109.587,329.618,110.285,329.618,110.982z"/>
		<path fill="#919191" d="M378.087,89.012c0.406-0.065,0.518,0.16,0.417,0.516c-0.302,1.066-0.726,2.083-1.259,3.054
			c-0.232,0.423-0.706,0.538-1.041,0.426c-0.467-0.155-0.056-0.565-0.003-0.835c0.141-0.719,0.491-1.417,0.523-2.132
			C376.769,89.048,377.441,89.103,378.087,89.012z"/>
		<path fill="#919191" d="M329.807,106.584c-0.025,0.499-0.291,0.731-0.765,0.735c-0.416,0.004-0.721-0.173-0.75-0.61
			c-0.034-0.513,0.27-0.865,0.751-0.887C329.486,105.802,329.731,106.158,329.807,106.584z"/>
		<path fill="#919191" d="M336.837,107.313c-0.482-0.01-0.784-0.233-0.759-0.721c0.024-0.471,0.384-0.716,0.801-0.724
			c0.402-0.007,0.655,0.303,0.678,0.707C337.584,107.061,337.305,107.298,336.837,107.313z"/>
		<path fill="#919191" d="M311.719,105.673c-0.389-0.086-0.651-0.296-0.625-0.667c0.021-0.292,0.205-0.555,0.56-0.566
			c0.393-0.014,0.618,0.198,0.647,0.583C312.332,105.444,312.015,105.562,311.719,105.673z"/>
	</g>
</g>
</svg>
