<?xml version="1.0" encoding="utf-8"?>
<!-- Generator: Adobe Illustrator 16.0.0, SVG Export Plug-In . SVG Version: 6.00 Build 0)  -->
<!DOCTYPE svg PUBLIC "-//W3C//DTD SVG 1.1//EN" "http://www.w3.org/Graphics/SVG/1.1/DTD/svg11.dtd">
<svg version="1.1" id="Layer_1" xmlns="http://www.w3.org/2000/svg" xmlns:xlink="http://www.w3.org/1999/xlink" x="0px" y="0px"
	 width="150px" height="44.354px" viewBox="263.55 77.933 150 44.354" enable-background="new 263.55 77.933 150 44.354"
	 xml:space="preserve">
<g>
	<g>
		<path fill="#B2B2B2" d="M408.213,78.375c1.55,0,2.768,0.433,3.616,1.286c0.842,0.844,1.283,2.1,1.277,3.629
			c-0.031,7.942-0.026,16.018-0.021,23.829c0.002,3.354,0.004,6.711,0.004,10.066c0,3.003-1.646,4.656-4.635,4.656
			c-23.297,0.002-46.595,0.003-69.893,0.003s-46.596-0.001-69.893-0.003c-1.504,0-2.668-0.399-3.46-1.188
			c-0.79-0.786-1.191-1.942-1.191-3.437c-0.001-3.432,0.001-6.864,0.003-10.297c0.005-7.879,0.011-16.027-0.028-24.042
			c-0.006-1.307,0.418-2.433,1.228-3.247c0.815-0.819,1.944-1.257,3.264-1.257h0.018c13.529,0,26.915,0.051,37.064,0.051
			c5.506,0,11.013-0.023,16.519-0.025c5.475-0.002,10.949-0.026,16.422-0.026h0.079c5.671,0,11.344,0.028,17.016,0.03
			c5.673,0.002,11.345,0.017,17.017,0.017c14.391,0,25.357-0.047,35.562-0.047h0.031 M408.213,77.933c-0.011,0-0.022,0-0.034,0
			c-11.853,0.047-23.707,0.035-35.561,0.035c-11.344,0-22.688-0.035-34.033-0.035c-0.027,0-0.051,0-0.079,0
			c-10.979,0-21.961,0.026-32.94,0.026c-12.355,0-24.708-0.026-37.063-0.026c-0.006,0-0.013,0-0.019,0
			c-2.925,0-4.949,2.023-4.934,4.943c0.057,11.446,0.021,22.894,0.024,34.339c0.001,3.244,1.827,5.067,5.095,5.067
			c23.297,0.003,46.595,0.004,69.893,0.004s46.596-0.001,69.893-0.002c3.237-0.001,5.076-1.86,5.078-5.1
			c0.002-11.298-0.027-22.596,0.018-33.894C413.562,80.013,411.656,77.933,408.213,77.933L408.213,77.933z"/>
	</g>
	<g>
		<path fill="#919191" d="M275.146,112.746c-0.427-0.507-0.502-1.116-0.502-1.746c0-7.189,0.005-14.376-0.005-21.564
			c0-0.618,0.16-1.158,0.682-1.931c0.503,0.585,0.943,1.149,1.436,1.663c3.312,3.459,6.629,6.914,9.96,10.354
			c0.43,0.443,0.729,0.794,0.172,1.361c-3.846,3.918-7.679,7.85-11.519,11.772C275.324,112.703,275.238,112.711,275.146,112.746z"/>
		<path fill="#919191" d="M318.469,93.361c0.443,0,0.886,0,1.328,0c1.646,0,1.646,0,1.6,1.598c-0.113,3.915-3.993,6.388-7.992,5.044
			c-2.548-0.857-4.033-2.729-4.356-5.351c-0.311-2.521,0.771-4.581,2.875-5.944c2.206-1.429,4.566-1.575,6.893-0.176
			c1.109,0.668,1.129,0.933,0.317,1.643c-0.337,0.294-0.583,0.326-0.959,0.059c-1.711-1.214-3.449-1.151-5.133,0.04
			c-1.705,1.206-2.208,2.943-1.76,4.883c0.449,1.947,1.847,3.034,3.781,3.43c1.834,0.375,3.784-0.747,4.427-2.501
			c0.236-0.644,0.161-0.986-0.624-0.958c-0.847,0.03-1.699-0.03-2.544,0.018c-0.69,0.039-0.896-0.231-0.884-0.896
			c0.012-0.671,0.267-0.929,0.929-0.895C317.065,93.39,317.767,93.361,318.469,93.361z"/>
		<path fill="#919191" d="M276.717,113.833c1.503-1.588,2.95-3.141,4.423-4.667c2.326-2.414,4.677-4.803,6.999-7.219
			c0.373-0.388,0.622-0.391,0.98,0c1.021,1.11,2.051,2.215,3.115,3.284c0.513,0.515,0.108,0.652-0.253,0.854
			c-2.99,1.666-5.978,3.337-8.969,5c-1.512,0.84-3.029,1.67-4.548,2.497C277.947,113.862,277.411,114.065,276.717,113.833z"/>
		<path fill="#919191" d="M346.439,99.63c-2.186,1.107-3.82,0.97-5.213-0.352c-1.157-1.096-1.563-3.058-0.953-4.602
			c0.821-2.078,3.469-3.109,5.424-2.099c0.295,0.152,0.438,0.247,0.831,0.02c1.006-0.582,1.651-0.141,1.626,1.016
			c-0.057,2.462,0.184,4.932-0.183,7.387c-0.245,1.641-1.269,2.669-3.04,3.05c-1.439,0.31-3.26-0.393-3.965-1.572
			c-0.161-0.27-0.582-0.654-0.051-0.924c0.404-0.205,0.923-0.809,1.343-0.196c0.758,1.107,1.708,1.312,2.877,0.885
			C346.31,101.813,346.243,100.742,346.439,99.63z M346.462,96.209c-0.014-1.399-0.952-2.438-2.184-2.418
			c-1.232,0.02-2.283,1.188-2.278,2.532c0.005,1.299,1.036,2.375,2.267,2.366C345.644,98.679,346.477,97.737,346.462,96.209z"/>
		<path fill="#919191" d="M276.661,86.777c0.741-0.164,1.232-0.049,1.697,0.208c4.514,2.492,9.024,4.989,13.542,7.472
			c0.607,0.334,0.575,0.651,0.125,1.096c-0.996,0.985-1.978,1.985-2.951,2.993c-0.313,0.324-0.561,0.398-0.912,0.038
			C284.369,94.679,280.566,90.783,276.661,86.777z"/>
		<path fill="#919191" d="M299.846,100.34c-0.067,1.014-0.768,1.686-1.588,2.193c-1.125,0.693-2.326,1.263-3.475,1.921
			c-0.473,0.271-0.793,0.188-1.157-0.188c-1.101-1.138-2.215-2.263-3.352-3.362c-0.455-0.441-0.415-0.763,0.02-1.186
			c1.135-1.103,2.241-2.235,3.353-3.361c0.278-0.282,0.549-0.482,0.962-0.249c1.313,0.739,2.657,1.426,3.936,2.218
			C299.239,98.757,299.767,99.396,299.846,100.34z"/>
		<path fill="#919191" d="M363.503,94.043c0-1.732,0.02-3.466-0.011-5.198c-0.012-0.622,0.196-0.847,0.824-0.829
			c1.29,0.037,2.581-0.02,3.871,0.021c1.962,0.061,3.657,1.799,3.685,3.721c0.027,1.896-1.67,3.671-3.625,3.789
			c-0.11,0.006-0.221,0.008-0.332,0.011c-2.477,0.053-2.477,0.053-2.477,2.592c0,0.295-0.035,0.596,0.006,0.884
			c0.131,0.91-0.21,1.248-1.149,1.184c-0.642-0.043-0.812-0.267-0.802-0.865C363.521,97.583,363.503,95.813,363.503,94.043z
			 M367.179,89.759c-1.991,0.023-1.716-0.223-1.739,1.78c-0.007,0.551,0.007,1.103,0.001,1.653
			c-0.006,0.405,0.165,0.614,0.586,0.608c0.771-0.012,1.558,0.081,2.309-0.045c0.85-0.143,1.438-0.726,1.565-1.616
			C370.128,90.557,369.207,89.767,367.179,89.759z"/>
		<path fill="#919191" d="M380.809,95.075c-0.407-1.267-1.624-1.721-2.798-1.037c-0.189,0.111-0.338,0.321-0.537,0.381
			c-0.547,0.166-1.096-0.038-1.406-0.423c-0.342-0.422,0.209-0.706,0.465-0.958c1.209-1.191,2.658-1.111,4.109-0.617
			c1.355,0.461,2.068,1.565,2.094,3.073c0.021,1.217,0.023,2.437-0.007,3.653c-0.009,0.385,0.249,0.978-0.47,1.028
			c-0.577,0.041-1.286,0.265-1.366-0.825c-1.022,1.151-2.19,1.267-3.419,0.823c-0.992-0.357-1.695-1.039-1.805-2.164
			c-0.113-1.161,0.425-2.06,1.479-2.603c1.159-0.597,2.35-0.472,3.557-0.227c0.057,0.019,0.113,0.04,0.17,0.06
			C380.853,95.185,380.831,95.13,380.809,95.075z M379.545,96.448c-1.321-0.017-2.118,0.453-2.104,1.219
			c0.016,0.825,0.584,1.011,1.272,1.027c1.073,0.025,2.263-0.804,2.145-1.618C380.747,96.317,379.977,96.555,379.545,96.448z"/>
		<path fill="#919191" d="M326.306,92.212c2.291,0.002,4.126,1.793,4.12,4.017c-0.006,2.246-1.919,4.174-4.15,4.184
			c-2.225,0.009-4.157-1.907-4.182-4.147C322.069,94.031,323.963,92.209,326.306,92.212z M328.51,96.335
			c0-1.328-0.967-2.324-2.254-2.324c-1.284,0-2.234,0.99-2.242,2.33c-0.007,1.414,0.864,2.356,2.178,2.355
			C327.58,98.696,328.51,97.749,328.51,96.335z"/>
		<path fill="#919191" d="M335.305,92.209c2.354-0.004,4.052,1.686,4.048,4.027c-0.002,2.321-1.827,4.179-4.102,4.177
			c-2.152-0.002-4.077-1.935-4.104-4.122C331.118,93.995,332.935,92.212,335.305,92.209z M335.306,94.011
			c-1.285-0.03-2.35,1.034-2.377,2.374c-0.023,1.128,1.075,2.356,2.153,2.409c1.261,0.062,2.427-1.019,2.48-2.298
			C337.616,95.173,336.588,94.04,335.306,94.011z"/>
		<path fill="#919191" d="M355.701,92.207c1.685,0.015,2.678,0.771,3.425,1.983c0.447,0.727,0.394,1.135-0.482,1.447
			c-1.313,0.469-2.574,1.084-3.882,1.571c-0.757,0.282-0.55,0.63-0.168,1.021c0.616,0.632,2.203,0.7,2.954-0.027
			c0.68-0.657,1.183-0.349,1.563,0.136c0.441,0.563-0.156,0.914-0.538,1.207c-1.968,1.517-4.677,0.992-6.036-1.15
			c-1.223-1.924-0.527-4.62,1.475-5.746C354.605,92.314,355.231,92.142,355.701,92.207z M356.017,93.777
			c-1.053-0.069-1.715,0.478-2.096,1.431c-0.091,0.229-0.279,0.492-0.027,0.71c0.197,0.17,0.414-0.006,0.613-0.086
			c0.614-0.246,1.24-0.469,1.84-0.749c0.334-0.157,0.949-0.162,0.85-0.682C357.095,93.868,356.548,93.761,356.017,93.777z"/>
		<path fill="#919191" d="M386.963,97.479c0.844-1.456,1.204-2.886,1.776-4.224c0.297-0.693,1.334-1.118,1.969-0.787
			c0.344,0.178,0.199,0.42,0.1,0.652c-1.457,3.378-2.92,6.753-4.371,10.133c-0.356,0.829-1.103,0.605-1.614,0.45
			c-0.685-0.207-0.161-0.837,0.007-1.072c1.521-2.138,1.004-4.156-0.174-6.217c-0.508-0.889-0.88-1.864-1.235-2.829
			c-0.124-0.335-0.741-0.879-0.13-1.068c0.586-0.181,1.479-0.455,1.855,0.577c0.429,1.174,0.918,2.326,1.389,3.485
			C386.629,96.815,386.751,97.039,386.963,97.479z"/>
		<path fill="#919191" d="M324.262,109.925c0,1.283-0.007,2.567,0.003,3.852c0.004,0.484-0.015,0.872-0.682,0.851
			c-0.613-0.02-0.605-0.395-0.604-0.821c0.003-1.698-0.01-3.396,0.009-5.094c0.004-0.36-0.203-0.884,0.428-0.962
			c0.517-0.063,0.985-0.066,1.324,0.516c0.756,1.298,1.591,2.55,2.671,3.777c0-1.145,0.003-2.289-0.001-3.434
			c-0.001-0.46-0.035-0.9,0.653-0.882c0.625,0.017,0.584,0.428,0.585,0.839c0.001,1.734,0.006,3.47-0.004,5.204
			c-0.002,0.309,0.12,0.725-0.344,0.818c-0.445,0.089-0.855,0.062-1.142-0.422c-0.771-1.301-1.58-2.578-2.376-3.863
			c-0.093-0.149-0.203-0.289-0.305-0.434C324.405,109.889,324.333,109.907,324.262,109.925z"/>
		<path fill="#919191" d="M360.825,109.966c0,1.286,0,2.569,0.001,3.854c0.001,0.419,0.034,0.836-0.599,0.805
			c-0.654-0.03-0.521-0.504-0.523-0.883c-0.01-1.697-0.014-3.396,0.004-5.092c0.004-0.331-0.179-0.806,0.372-0.897
			c0.481-0.08,0.911-0.061,1.228,0.474c0.768,1.297,1.602,2.553,2.512,3.985c0.251-0.745,0.002-1.387,0.171-1.938
			c0.255-0.84-0.733-2.432,0.628-2.414c1.239,0.016,0.431,1.601,0.564,2.467c0.15,0.973,0.072,1.989,0.018,2.982
			c-0.025,0.447,0.342,1.092-0.417,1.301c-0.747,0.207-1.034-0.352-1.351-0.861c-0.794-1.28-1.6-2.555-2.4-3.832
			C360.964,109.934,360.895,109.95,360.825,109.966z"/>
		<path fill="#919191" d="M339.573,112.156c0-1.214-0.003-2.427,0.002-3.641c0.001-0.364-0.06-0.761,0.509-0.786
			c0.627-0.028,0.602,0.385,0.602,0.806c-0.001,1.732,0.008,3.467-0.008,5.199c-0.003,0.33,0.17,0.782-0.396,0.878
			c-0.448,0.076-0.783-0.075-1.026-0.469c-0.867-1.406-1.744-2.807-2.811-4.19c0,1.256,0.01,2.512-0.006,3.769
			c-0.004,0.369,0.157,0.864-0.5,0.899c-0.728,0.039-0.602-0.485-0.604-0.908c-0.007-1.658-0.016-3.318,0.007-4.978
			c0.005-0.354-0.226-0.869,0.393-0.99c0.566-0.11,0.95,0.079,1.262,0.618c0.753,1.301,1.583,2.558,2.381,3.832
			C339.443,112.183,339.507,112.169,339.573,112.156z"/>
		<path fill="#919191" d="M372.808,94.12c0-1.769,0.023-3.539-0.013-5.308c-0.014-0.661,0.268-0.802,0.856-0.8
			c0.605,0.001,0.948,0.083,0.941,0.829c-0.032,3.501-0.031,7.003,0,10.505c0.006,0.709-0.277,0.856-0.915,0.865
			c-0.678,0.009-0.899-0.218-0.884-0.894C372.833,97.586,372.807,95.853,372.808,94.12z"/>
		<path fill="#919191" d="M349.307,94.005c0-1.732,0.024-3.466-0.013-5.197c-0.015-0.666,0.268-0.798,0.856-0.795
			c0.598,0.003,0.95,0.068,0.942,0.822c-0.033,3.501-0.031,7.003,0,10.506c0.006,0.699-0.252,0.867-0.902,0.873
			c-0.684,0.006-0.893-0.231-0.879-0.9c0.037-1.769,0.013-3.539,0.013-5.308C349.319,94.005,349.313,94.005,349.307,94.005z"/>
		<path fill="#919191" d="M341.978,111.11c0-0.222-0.074-0.477,0.012-0.656c0.414-0.863-0.957-2.475,0.791-2.66
			c3.444-0.367,4.803,0.452,5.162,2.978c0.322,2.268-1.146,3.823-3.438,3.856c-2.527,0.037-2.527,0.037-2.527-2.525
			C341.978,111.771,341.978,111.44,341.978,111.11z M343.104,111.261c0,0.517,0.032,1.036-0.009,1.55
			c-0.05,0.646,0.147,0.908,0.854,0.912c2.075,0.013,2.966-1,2.705-3.187c-0.157-1.32-1.028-1.844-2.813-1.728
			c-1.35,0.088-0.521,1.109-0.725,1.683C343.036,110.721,343.103,111.003,343.104,111.261z"/>
		<path fill="#919191" d="M356.779,114.501c-0.941,0.29-1.457-0.043-1.842-0.672c-0.059-0.095-0.106-0.2-0.184-0.276
			c-0.527-0.522-0.719-1.707-1.535-1.519c-0.899,0.207-0.262,1.262-0.388,1.928c-0.081,0.433-0.171,0.671-0.658,0.671
			c-0.483,0-0.644-0.214-0.641-0.671c0.011-1.846,0.005-3.691,0.005-5.536c0-0.354,0.025-0.685,0.506-0.675
			c0.848,0.017,1.708-0.05,2.537,0.079c0.757,0.118,1.369,0.606,1.549,1.406c0.173,0.771,0.008,1.557-0.686,1.966
			c-0.758,0.448-0.475,0.814-0.123,1.286C355.8,113.133,356.264,113.788,356.779,114.501z M352.823,109.818
			c0.184,0.38-0.388,1.237,0.607,1.166c0.717-0.052,1.574-0.204,1.586-1.183c0.012-0.912-0.738-1.076-1.465-1.148
			C352.599,108.56,352.888,109.282,352.823,109.818z"/>
		<path fill="#919191" d="M312.968,114.621c-0.417,0-0.75-0.018-1.08,0.003c-0.541,0.036-0.695-0.23-0.691-0.731
			c0.017-1.806,0.002-3.613,0.01-5.42c0.001-0.276-0.061-0.572,0.332-0.722c1.315-0.495,3.807,0.124,4.584,1.178
			c0.945,1.28,1.043,2.646,0.313,4.043C315.683,114.412,314.393,114.775,312.968,114.621z M312.305,111.018
			c0,0.627-0.001,1.254,0,1.881c0,0.313,0.055,0.542,0.446,0.633c1.306,0.302,2.796-0.498,3.089-1.702
			c0.35-1.441-0.371-2.631-1.841-3.036c-1.461-0.403-1.695-0.233-1.697,1.229C312.302,110.354,312.302,110.687,312.305,111.018z"/>
		<path fill="#919191" d="M317.851,111.161c0-0.886,0.022-1.772-0.008-2.657c-0.02-0.562,0.168-0.803,0.758-0.781
			c0.92,0.034,1.844,0.01,2.766,0.008c0.352,0,0.666,0.015,0.68,0.503c0.016,0.538-0.315,0.587-0.72,0.582
			c-0.443-0.006-0.888,0.029-1.328-0.007c-0.7-0.06-1.062,0.089-1.072,0.935c-0.01,0.899,0.445,0.939,1.1,0.896
			c0.367-0.025,0.738-0.002,1.106-0.002c0.392-0.002,0.648,0.157,0.629,0.582c-0.016,0.366-0.259,0.5-0.598,0.502
			c-0.369,0-0.738,0.012-1.107,0c-0.613-0.021-1.127-0.082-1.134,0.86c-0.006,0.937,0.433,1.02,1.15,0.971
			c0.477-0.032,0.959-0.011,1.438,0.015c0.343,0.019,0.525,0.217,0.526,0.577c0.001,0.416-0.264,0.475-0.587,0.475
			c-0.996-0.001-1.992-0.012-2.988,0.004c-0.502,0.008-0.62-0.259-0.614-0.695C317.86,113.005,317.852,112.083,317.851,111.161z"/>
		<path fill="#919191" d="M357.304,111.177c0-0.885,0.008-1.769-0.003-2.652c-0.005-0.448,0.038-0.794,0.632-0.799
			c0.552-0.005,0.686,0.251,0.682,0.743c-0.014,1.805-0.014,3.61,0,5.416c0.004,0.49-0.13,0.748-0.682,0.742
			c-0.594-0.005-0.637-0.351-0.632-0.797C357.312,112.945,357.304,112.061,357.304,111.177z"/>
		<path fill="#919191" d="M348.886,111.176c0-0.885,0.008-1.77-0.004-2.654c-0.004-0.448,0.041-0.79,0.633-0.795
			c0.555-0.005,0.686,0.253,0.682,0.744c-0.014,1.805-0.014,3.61,0,5.415c0.004,0.493-0.133,0.747-0.685,0.741
			c-0.595-0.006-0.634-0.354-0.629-0.8C348.892,112.943,348.886,112.06,348.886,111.176z"/>
		<path fill="#919191" d="M333.998,111.217c0,0.885-0.012,1.77,0.005,2.654c0.009,0.48-0.112,0.757-0.674,0.756
			c-0.588,0-0.643-0.328-0.64-0.783c0.01-1.769,0.006-3.538,0.001-5.308c-0.001-0.431-0.001-0.797,0.61-0.812
			c0.647-0.016,0.711,0.338,0.702,0.839C333.987,109.447,333.998,110.332,333.998,111.217z"/>
		<path fill="#919191" d="M308.994,108.961c0-0.311,0-0.528,0-0.746c0-0.388,0.246-0.552,0.567-0.464
			c0.911,0.249,0.384,1.011,0.487,1.539c0.083,0.425-0.048,0.877-0.598,0.806C308.62,109.989,309.166,109.274,308.994,108.961z"/>
		<path fill="#919191" d="M333.997,106.619c-0.009,0.438-0.225,0.669-0.663,0.689c-0.383,0.017-0.629-0.128-0.647-0.542
			c-0.019-0.416,0.143-0.719,0.584-0.76C333.698,105.967,333.947,106.189,333.997,106.619z"/>
		<path fill="#919191" d="M357.906,105.993c0.483,0.035,0.701,0.267,0.711,0.698c0.008,0.395-0.172,0.61-0.576,0.617
			c-0.419,0.006-0.705-0.161-0.729-0.612C357.287,106.254,357.534,106.04,357.906,105.993z"/>
		<path fill="#919191" d="M350.197,106.611c-0.002,0.419-0.181,0.665-0.578,0.688c-0.433,0.026-0.709-0.174-0.725-0.629
			c-0.012-0.387,0.196-0.634,0.582-0.664C349.908,105.973,350.164,106.193,350.197,106.611z"/>
		<path fill="#919191" d="M380.809,95.075c0.022,0.055,0.044,0.109,0.065,0.164c-0.057-0.021-0.113-0.041-0.17-0.06
			C380.738,95.144,380.773,95.109,380.809,95.075z"/>
	</g>
</g>
</svg>
