<?xml version="1.0" encoding="utf-8"?>
<!-- Generator: Adobe Illustrator 16.0.0, SVG Export Plug-In . SVG Version: 6.00 Build 0)  -->
<!DOCTYPE svg PUBLIC "-//W3C//DTD SVG 1.1//EN" "http://www.w3.org/Graphics/SVG/1.1/DTD/svg11.dtd">
<svg version="1.1" id="Layer_1" xmlns="http://www.w3.org/2000/svg" xmlns:xlink="http://www.w3.org/1999/xlink" x="0px" y="0px"
	 width="20px" height="20px" viewBox="0 0 20 20" enable-background="new 0 0 20 20" xml:space="preserve">
<path fill="#3F434B" d="M13.781,10.448c-0.104-0.021-0.247,0.008-0.33,0.071c-1.826,1.375-5.063,1.392-6.916-0.014
	c-0.072-0.056-0.193-0.089-0.281-0.073c-2.814,0.49-5.011,2.997-5.187,5.842c-0.046,0.754,0.224,1.291,0.802,1.726
	c0.628,0.474,1.336,0.771,2.074,1.007c1.819,0.588,3.696,0.781,6.044,0.854c0.488-0.022,1.426-0.049,2.359-0.129
	c1.475-0.127,2.924-0.396,4.313-0.938c0.674-0.263,1.315-0.582,1.829-1.109c0.312-0.321,0.463-0.696,0.447-1.153
	C18.855,13.546,16.711,11.007,13.781,10.448z M7.964,9.782c1.337,0.774,2.696,0.795,4.033,0.019c1.319-0.766,2.14-1.939,2.565-3.383
	c0.938-3.186-1.313-6.274-4.568-6.279c-2.188-0.003-4.128,1.519-4.639,3.64C4.823,5.988,5.964,8.626,7.964,9.782z"/>
</svg>
